<svg viewBox="0 0 16 16" fill="none" xmlns="http://www.w3.org/2000/svg">
<path fill-rule="evenodd" clip-rule="evenodd" d="M9.83441 4.2344C9.98443 4.08442 10.1879 4.00017 10.4 4.00017C10.6121 4.00017 10.8156 4.08442 10.9656 4.2344L14.1656 7.4344C14.3156 7.58442 14.3998 7.78787 14.3998 8C14.3998 8.21213 14.3156 8.41557 14.1656 8.5656L10.9656 11.7656C10.8147 11.9113 10.6126 11.992 10.4029 11.9901C10.1931 11.9883 9.99248 11.9042 9.84415 11.7559C9.69582 11.6075 9.61169 11.4069 9.60987 11.1971C9.60804 10.9874 9.68868 10.7853 9.83441 10.6344L11.6688 8.8H2.40001C2.18783 8.8 1.98435 8.71571 1.83432 8.56568C1.68429 8.41565 1.60001 8.21217 1.60001 8C1.60001 7.78782 1.68429 7.58434 1.83432 7.43431C1.98435 7.28428 2.18783 7.2 2.40001 7.2H11.6688L9.83441 5.3656C9.68443 5.21557 9.60018 5.01213 9.60018 4.8C9.60018 4.58787 9.68443 4.38442 9.83441 4.2344Z" fill="#ffffff"/>
</svg>
