<svg viewBox="0 0 20 21" fill="none" xmlns="http://www.w3.org/2000/svg">
<path fill-rule="evenodd" clip-rule="evenodd" d="M7.29303 15.207C7.10556 15.0195 7.00024 14.7652 7.00024 14.5C7.00024 14.2348 7.10556 13.9805 7.29303 13.793L10.586 10.5L7.29303 7.20701C7.11087 7.01841 7.01008 6.76581 7.01236 6.50361C7.01463 6.24141 7.1198 5.9906 7.30521 5.80519C7.49062 5.61978 7.74143 5.51461 8.00363 5.51234C8.26583 5.51006 8.51843 5.61085 8.70703 5.79301L12.707 9.79301C12.8945 9.98054 12.9998 10.2348 12.9998 10.5C12.9998 10.7652 12.8945 11.0195 12.707 11.207L8.70703 15.207C8.5195 15.3945 8.26519 15.4998 8.00003 15.4998C7.73487 15.4998 7.48056 15.3945 7.29303 15.207Z" fill="#E5E7EB"/>
</svg>
