<svg width="16" height="17" viewBox="0 0 16 17" fill="none" xmlns="http://www.w3.org/2000/svg">
<path d="M8.70704 0.793C8.51951 0.605529 8.26521 0.500214 8.00004 0.500214C7.73488 0.500214 7.48057 0.605529 7.29304 0.793L0.293041 7.793C0.110883 7.9816 0.0100885 8.2342 0.0123669 8.4964C0.0146453 8.7586 0.119814 9.00941 0.305222 9.19482C0.490631 9.38023 0.741443 9.4854 1.00364 9.48767C1.26584 9.48995 1.51844 9.38916 1.70704 9.207L2.00004 8.914V15.5C2.00004 15.7652 2.1054 16.0196 2.29293 16.2071C2.48047 16.3946 2.73482 16.5 3.00004 16.5H5.00004C5.26526 16.5 5.51961 16.3946 5.70715 16.2071C5.89468 16.0196 6.00004 15.7652 6.00004 15.5V13.5C6.00004 13.2348 6.1054 12.9804 6.29293 12.7929C6.48047 12.6054 6.73482 12.5 7.00004 12.5H9.00004C9.26526 12.5 9.51961 12.6054 9.70715 12.7929C9.89468 12.9804 10 13.2348 10 13.5V15.5C10 15.7652 10.1054 16.0196 10.2929 16.2071C10.4805 16.3946 10.7348 16.5 11 16.5H13C13.2653 16.5 13.5196 16.3946 13.7071 16.2071C13.8947 16.0196 14 15.7652 14 15.5V8.914L14.293 9.207C14.4816 9.38916 14.7342 9.48995 14.9964 9.48767C15.2586 9.4854 15.5095 9.38023 15.6949 9.19482C15.8803 9.00941 15.9854 8.7586 15.9877 8.4964C15.99 8.2342 15.8892 7.9816 15.707 7.793L8.70704 0.793Z" fill="#E5E7EB"/>
</svg>
