<svg width="16" height="16" viewBox="0 0 16 16" fill="none" xmlns="http://www.w3.org/2000/svg">
<path fill-rule="evenodd" clip-rule="evenodd" d="M3.99999 1.60001C3.57565 1.60001 3.16868 1.76858 2.86862 2.06864C2.56856 2.36869 2.39999 2.77566 2.39999 3.20001V14.4L5.19999 12.8L7.99999 14.4L10.8 12.8L13.6 14.4V3.20001C13.6 2.77566 13.4314 2.36869 13.1314 2.06864C12.8313 1.76858 12.4243 1.60001 12 1.60001H3.99999ZM5.99999 4.00001C5.68173 4.00001 5.37651 4.12643 5.15147 4.35148C4.92642 4.57652 4.79999 4.88175 4.79999 5.20001C4.79999 5.51827 4.92642 5.82349 5.15147 6.04853C5.37651 6.27358 5.68173 6.40001 5.99999 6.40001C6.31825 6.40001 6.62348 6.27358 6.84852 6.04853C7.07357 5.82349 7.19999 5.51827 7.19999 5.20001C7.19999 4.88175 7.07357 4.57652 6.84852 4.35148C6.62348 4.12643 6.31825 4.00001 5.99999 4.00001V4.00001ZM10.9656 4.23441C10.8156 4.08443 10.6121 4.00018 10.4 4.00018C10.1879 4.00018 9.98442 4.08443 9.83439 4.23441L5.03439 9.03441C4.95799 9.1082 4.89704 9.19648 4.85511 9.29408C4.81319 9.39169 4.79112 9.49666 4.79019 9.60288C4.78927 9.70911 4.80951 9.81445 4.84974 9.91277C4.88996 10.0111 4.94936 10.1004 5.02448 10.1755C5.09959 10.2506 5.18891 10.31 5.28723 10.3503C5.38555 10.3905 5.49089 10.4107 5.59712 10.4098C5.70334 10.4089 5.80831 10.3868 5.90592 10.3449C6.00352 10.303 6.0918 10.242 6.16559 10.1656L10.9656 5.36561C11.1156 5.21558 11.1998 5.01214 11.1998 4.80001C11.1998 4.58787 11.1156 4.38443 10.9656 4.23441V4.23441ZM9.99999 8.00001C9.68173 8.00001 9.37651 8.12643 9.15147 8.35148C8.92642 8.57652 8.79999 8.88175 8.79999 9.20001C8.79999 9.51827 8.92642 9.82349 9.15147 10.0485C9.37651 10.2736 9.68173 10.4 9.99999 10.4C10.3183 10.4 10.6235 10.2736 10.8485 10.0485C11.0736 9.82349 11.2 9.51827 11.2 9.20001C11.2 8.88175 11.0736 8.57652 10.8485 8.35148C10.6235 8.12643 10.3183 8.00001 9.99999 8.00001V8.00001Z" fill="#111928"/>
</svg>
