<svg width="250" height="37" viewBox="0 0 250 37" fill="none" xmlns="http://www.w3.org/2000/svg">
<path d="M24.5195 15.4427C24.4454 15.9531 24.1088 16.6466 23.7227 17.2495C23.2355 18.0103 22.4623 18.5431 21.5775 18.7281L17.6798 19.5432C17.0534 19.6742 16.4853 20.002 16.0588 20.4788L13.5032 23.3355C13.0228 23.8724 12.6871 23.7443 12.6871 23.0243C12.6813 23.0509 11.4188 26.307 14.7647 28.2369C16.0503 28.9785 17.901 28.712 19.1866 27.9705L25.9984 24.0414C28.546 22.572 30.3446 20.0862 30.9425 17.2087C30.9661 17.0949 30.9844 16.9806 31.0041 16.8665L24.5195 15.4427Z" fill="url(#paint0_linear_222_2289)"/>
<path d="M22.7529 11.5179C24.0386 12.2595 24.5638 13.3635 24.5638 14.8466C24.5638 15.0479 24.548 15.2468 24.5195 15.4427L27.2643 16.6217L31.0041 16.8665C31.483 14.095 30.5445 11.2422 28.8621 8.97463C27.596 7.26819 25.9668 5.78732 24.0082 4.65756C22.4172 3.73984 20.7638 3.13519 19.1026 2.80341L17.2362 5.22041L16.6466 7.99577L22.7529 11.5179Z" fill="url(#paint1_linear_222_2289)"/>
<path d="M0.783597 13.5518C0.782899 13.554 0.784832 13.5546 0.78556 13.5524C0.929583 13.1205 1.11018 12.6385 1.33564 12.1237C2.51334 9.4343 4.78286 7.64062 7.57492 6.72608C10.367 5.81156 13.4155 6.13212 15.9601 7.59988L16.6465 7.99578L19.1025 2.80341C11.291 1.24324 3.30728 5.83253 0.793528 13.5217C0.792327 13.5254 0.787957 13.5382 0.783597 13.5518Z" fill="url(#paint2_linear_222_2289)"/>
<path d="M18.9198 27.9705C17.6342 28.712 16.0503 28.712 14.7647 27.9705C14.5901 27.8698 14.4256 27.7567 14.27 27.6341L12.009 29.1886L10.0602 32.3377C12.2233 34.1378 15.0321 34.7165 17.8389 34.3946C19.9512 34.1524 22.0495 33.4833 24.0081 32.3535C25.5992 31.4358 26.95 30.3076 28.0682 29.0362L26.9062 26.2129L25.0262 24.4483L18.9198 27.9705Z" fill="url(#paint3_linear_222_2289)"/>
<path d="M14.27 27.6341C13.2795 26.8539 12.6871 25.6572 12.6871 24.3754V24.2476V13.5724C12.6871 12.9687 12.865 12.8661 13.3883 13.1679C12.5823 12.703 10.7202 11.107 8.42112 12.4331C7.13551 13.1747 6.07684 14.8115 6.07684 16.2946V24.1528C6.07684 27.0917 7.599 30.1572 9.79442 32.1132C9.88126 32.1906 9.97116 32.2635 10.0602 32.3377L14.27 27.6341Z" fill="url(#paint4_linear_222_2289)"/>
<path d="M27.9105 7.81239C27.9089 7.81069 27.9074 7.81206 27.9089 7.81377C28.2114 8.15438 28.5388 8.55159 28.8724 9.00408C30.6148 11.3677 31.2659 14.3614 30.6626 17.2344C30.0593 20.1073 28.2572 22.5847 25.7126 24.0524L25.0262 24.4483L28.0682 29.0362C33.3264 23.0577 33.34 13.8555 27.9316 7.83604C27.929 7.83316 27.9201 7.82296 27.9105 7.81239Z" fill="url(#paint5_linear_222_2289)"/>
<path d="M6.34355 16.2947C6.34354 14.8116 7.13551 13.4411 8.42113 12.6996C8.59565 12.5989 8.77601 12.5132 8.96002 12.4398L8.74304 9.70633L7.21861 6.57892C4.57671 7.55035 2.4397 9.55796 1.31528 12.1474C0.469097 14.096 9.792e-06 16.2461 0 18.5056C0 20.341 0.302549 22.0738 0.845532 23.677L3.87391 24.0833L6.34355 23.339V16.2947V16.2947Z" fill="url(#paint6_linear_222_2289)"/>
<path d="M8.96003 12.4398C10.1316 11.9729 11.4652 12.0587 12.5763 12.6996L12.6871 12.7635L21.5825 17.8944C22.2065 18.2543 22.1498 18.6085 21.4445 18.756L21.9577 18.6487C22.6329 18.5075 23.2498 18.1624 23.7215 17.6595C24.5327 16.795 24.8304 15.7518 24.8304 14.8466C24.8304 13.3635 24.0385 11.993 22.7529 11.2515L15.941 7.32239C13.3935 5.85298 10.3394 5.53965 7.5461 6.46113C7.4356 6.49758 7.32744 6.53891 7.21863 6.57892L8.96003 12.4398Z" fill="url(#paint7_linear_222_2289)"/>
<path d="M19.3222 34.1524C19.3244 34.152 19.324 34.15 19.3218 34.1504C18.8753 34.2418 18.3672 34.3265 17.8082 34.3889C14.8881 34.7146 11.9675 33.7811 9.7787 31.8226C7.58992 29.8642 6.34353 27.0663 6.34354 24.1308L6.34353 23.339L0.84552 23.677C3.39886 31.2157 11.3689 35.8286 19.2911 34.1589C19.2949 34.1581 19.3082 34.1555 19.3222 34.1524Z" fill="url(#paint8_linear_222_2289)"/>
<path d="M49.3949 27.5L44.4688 10.0455H47.8693L51.0142 22.8722H51.1761L54.5341 10.0455H57.6278L60.9943 22.8807H61.1477L64.2926 10.0455H67.6932L62.767 27.5H59.6477L56.1534 15.2528H56.017L52.5142 27.5H49.3949ZM74.1236 27.7557C72.8452 27.7557 71.7372 27.4744 70.7997 26.9119C69.8622 26.3494 69.1349 25.5625 68.6179 24.5511C68.1065 23.5398 67.8509 22.358 67.8509 21.0057C67.8509 19.6534 68.1065 18.4687 68.6179 17.4517C69.1349 16.4347 69.8622 15.6449 70.7997 15.0824C71.7372 14.5199 72.8452 14.2386 74.1236 14.2386C75.402 14.2386 76.5099 14.5199 77.4474 15.0824C78.3849 15.6449 79.1094 16.4347 79.6207 17.4517C80.1378 18.4687 80.3963 19.6534 80.3963 21.0057C80.3963 22.358 80.1378 23.5398 79.6207 24.5511C79.1094 25.5625 78.3849 26.3494 77.4474 26.9119C76.5099 27.4744 75.402 27.7557 74.1236 27.7557ZM74.1406 25.2841C74.8338 25.2841 75.4134 25.0937 75.8793 24.7131C76.3452 24.3267 76.6918 23.8097 76.919 23.1619C77.152 22.5142 77.2685 21.7926 77.2685 20.9972C77.2685 20.196 77.152 19.4716 76.919 18.8239C76.6918 18.1705 76.3452 17.6506 75.8793 17.2642C75.4134 16.8778 74.8338 16.6847 74.1406 16.6847C73.4304 16.6847 72.8395 16.8778 72.3679 17.2642C71.902 17.6506 71.5526 18.1705 71.3196 18.8239C71.0923 19.4716 70.9787 20.196 70.9787 20.9972C70.9787 21.7926 71.0923 22.5142 71.3196 23.1619C71.5526 23.8097 71.902 24.3267 72.3679 24.7131C72.8395 25.0937 73.4304 25.2841 74.1406 25.2841ZM87.8729 27.7301C86.8445 27.7301 85.924 27.4659 85.1115 26.9375C84.299 26.4091 83.657 25.642 83.1854 24.6364C82.7138 23.6307 82.478 22.4091 82.478 20.9716C82.478 19.517 82.7166 18.2898 83.1939 17.2898C83.6768 16.2841 84.3274 15.5256 85.1456 15.0142C85.9638 14.4972 86.8757 14.2386 87.8814 14.2386C88.6484 14.2386 89.2791 14.3693 89.7734 14.6307C90.2678 14.8864 90.6598 15.196 90.9496 15.5597C91.2393 15.9176 91.4638 16.2557 91.6229 16.5739H91.7507V10.0455H94.8445V27.5H91.8104V25.4375H91.6229C91.4638 25.7557 91.2337 26.0937 90.9325 26.4517C90.6314 26.804 90.2337 27.1051 89.7393 27.3551C89.245 27.6051 88.6229 27.7301 87.8729 27.7301ZM88.7337 25.1989C89.3871 25.1989 89.9439 25.0227 90.4041 24.6705C90.8643 24.3125 91.2138 23.8153 91.4524 23.179C91.6911 22.5426 91.8104 21.8011 91.8104 20.9545C91.8104 20.108 91.6911 19.3722 91.4524 18.7472C91.2195 18.1222 90.8729 17.6364 90.4126 17.2898C89.9581 16.9432 89.3984 16.7699 88.7337 16.7699C88.0462 16.7699 87.4723 16.9489 87.0121 17.3068C86.5518 17.6648 86.2053 18.1591 85.9723 18.7898C85.7393 19.4205 85.6229 20.142 85.6229 20.9545C85.6229 21.7727 85.7393 22.5028 85.9723 23.1449C86.2109 23.7812 86.5604 24.2841 87.0206 24.6534C87.4865 25.017 88.0575 25.1989 88.7337 25.1989ZM100.945 23.392L100.936 19.6676H101.43L106.135 14.4091H109.74L103.953 20.8523H103.314L100.945 23.392ZM98.1321 27.5V10.0455H101.217V27.5H98.1321ZM106.348 27.5L102.087 21.5426L104.166 19.3693L110.038 27.5H106.348ZM115.563 27.7642C114.734 27.7642 113.987 27.6165 113.322 27.321C112.663 27.0199 112.14 26.5767 111.754 25.9915C111.373 25.4062 111.183 24.6847 111.183 23.8267C111.183 23.0881 111.319 22.4773 111.592 21.9943C111.864 21.5114 112.237 21.125 112.708 20.8352C113.18 20.5455 113.711 20.3267 114.302 20.179C114.898 20.0256 115.515 19.9148 116.151 19.8466C116.918 19.767 117.54 19.696 118.018 19.6335C118.495 19.5653 118.842 19.4631 119.058 19.3267C119.279 19.1847 119.39 18.9659 119.39 18.6705V18.6193C119.39 17.9773 119.2 17.4801 118.819 17.1278C118.438 16.7756 117.89 16.5994 117.174 16.5994C116.418 16.5994 115.819 16.7642 115.376 17.0938C114.938 17.4233 114.643 17.8125 114.489 18.2614L111.609 17.8523C111.836 17.0568 112.211 16.392 112.734 15.858C113.256 15.3182 113.896 14.9148 114.651 14.6477C115.407 14.375 116.242 14.2386 117.157 14.2386C117.788 14.2386 118.415 14.3125 119.04 14.4602C119.665 14.608 120.237 14.8523 120.754 15.1932C121.271 15.5284 121.685 15.9858 121.998 16.5653C122.316 17.1449 122.475 17.8693 122.475 18.7386V27.5H119.509V25.7017H119.407C119.219 26.0653 118.955 26.4062 118.614 26.7244C118.279 27.0369 117.856 27.2898 117.344 27.483C116.839 27.6705 116.245 27.7642 115.563 27.7642ZM116.364 25.4972C116.984 25.4972 117.521 25.375 117.975 25.1307C118.43 24.8807 118.779 24.5511 119.023 24.142C119.273 23.733 119.398 23.2869 119.398 22.804V21.2614C119.302 21.3409 119.137 21.4148 118.904 21.483C118.677 21.5511 118.421 21.6108 118.137 21.6619C117.853 21.7131 117.572 21.7585 117.293 21.7983C117.015 21.8381 116.773 21.8722 116.569 21.9006C116.109 21.9631 115.697 22.0653 115.333 22.2074C114.969 22.3494 114.683 22.5483 114.472 22.804C114.262 23.054 114.157 23.3778 114.157 23.7756C114.157 24.3438 114.364 24.7727 114.779 25.0625C115.194 25.3523 115.722 25.4972 116.364 25.4972ZM141.153 14.8438C141.073 14.0994 140.738 13.5199 140.147 13.1051C139.562 12.6903 138.8 12.483 137.863 12.483C137.204 12.483 136.638 12.5824 136.167 12.7812C135.695 12.9801 135.335 13.25 135.085 13.5909C134.835 13.9318 134.707 14.321 134.701 14.7585C134.701 15.1222 134.783 15.4375 134.948 15.7045C135.119 15.9716 135.349 16.1989 135.638 16.3864C135.928 16.5682 136.249 16.7216 136.602 16.8466C136.954 16.9716 137.309 17.0767 137.667 17.1619L139.303 17.571C139.962 17.7244 140.596 17.9318 141.204 18.1932C141.817 18.4545 142.366 18.7841 142.849 19.1818C143.337 19.5795 143.724 20.0597 144.008 20.6222C144.292 21.1847 144.434 21.8437 144.434 22.5994C144.434 23.6222 144.173 24.5227 143.65 25.3011C143.127 26.0739 142.371 26.679 141.383 27.1165C140.4 27.5483 139.21 27.7642 137.812 27.7642C136.454 27.7642 135.275 27.554 134.275 27.1335C133.281 26.7131 132.502 26.0994 131.94 25.2926C131.383 24.4858 131.082 23.5028 131.036 22.3438H134.147C134.192 22.9517 134.38 23.4574 134.71 23.8608C135.039 24.2642 135.468 24.5653 135.996 24.7642C136.531 24.9631 137.127 25.0625 137.786 25.0625C138.474 25.0625 139.076 24.9602 139.593 24.7557C140.116 24.5455 140.525 24.2557 140.82 23.8864C141.116 23.5114 141.266 23.0739 141.272 22.5739C141.266 22.1193 141.133 21.7443 140.871 21.4489C140.61 21.1477 140.244 20.8977 139.772 20.6989C139.306 20.4943 138.761 20.3125 138.136 20.1534L136.15 19.642C134.712 19.2727 133.576 18.7131 132.741 17.9631C131.911 17.2074 131.496 16.2045 131.496 14.9545C131.496 13.9261 131.775 13.0256 132.332 12.2528C132.894 11.4801 133.658 10.8807 134.624 10.4545C135.59 10.0227 136.684 9.80682 137.906 9.80682C139.144 9.80682 140.229 10.0227 141.161 10.4545C142.099 10.8807 142.835 11.4744 143.369 12.2358C143.903 12.9915 144.178 13.8608 144.195 14.8438H141.153ZM153.653 14.4091V16.7955H146.128V14.4091H153.653ZM147.986 11.2727H151.071V23.5625C151.071 23.9773 151.134 24.2955 151.259 24.517C151.389 24.733 151.56 24.8807 151.77 24.9602C151.98 25.0398 152.213 25.0795 152.469 25.0795C152.662 25.0795 152.838 25.0653 152.997 25.0369C153.162 25.0085 153.287 24.983 153.372 24.9602L153.892 27.3722C153.727 27.429 153.491 27.4915 153.185 27.5597C152.884 27.6278 152.514 27.6676 152.077 27.679C151.304 27.7017 150.608 27.5852 149.989 27.3295C149.369 27.0682 148.878 26.6648 148.514 26.1193C148.156 25.5739 147.98 24.892 147.986 24.0739V11.2727ZM156.234 27.5V14.4091H159.225V16.5909H159.362C159.6 15.8352 160.009 15.2528 160.589 14.8438C161.174 14.429 161.842 14.2216 162.592 14.2216C162.762 14.2216 162.952 14.2301 163.163 14.2472C163.379 14.2585 163.558 14.2784 163.7 14.3068V17.1449C163.569 17.0994 163.362 17.0597 163.077 17.0256C162.799 16.9858 162.529 16.9659 162.268 16.9659C161.705 16.9659 161.2 17.0881 160.751 17.3324C160.308 17.571 159.958 17.9034 159.702 18.3295C159.447 18.7557 159.319 19.2472 159.319 19.804V27.5H156.234ZM171.006 27.7557C169.693 27.7557 168.56 27.483 167.605 26.9375C166.656 26.3864 165.926 25.608 165.415 24.6023C164.903 23.5909 164.648 22.4006 164.648 21.0312C164.648 19.6847 164.903 18.5028 165.415 17.4858C165.932 16.4631 166.653 15.6676 167.58 15.0994C168.506 14.5256 169.594 14.2386 170.844 14.2386C171.651 14.2386 172.412 14.3693 173.128 14.6307C173.849 14.8864 174.486 15.2841 175.037 15.8239C175.594 16.3636 176.031 17.0511 176.349 17.8864C176.668 18.7159 176.827 19.7045 176.827 20.8523V21.7983H166.097V19.7188H173.869C173.864 19.1278 173.736 18.6023 173.486 18.142C173.236 17.6761 172.886 17.3097 172.438 17.0426C171.994 16.7756 171.477 16.642 170.886 16.642C170.256 16.642 169.702 16.7955 169.224 17.1023C168.747 17.4034 168.375 17.8011 168.108 18.2955C167.847 18.7841 167.713 19.321 167.707 19.9062V21.7216C167.707 22.483 167.847 23.1364 168.125 23.6818C168.403 24.2216 168.793 24.6364 169.293 24.9261C169.793 25.2102 170.378 25.3523 171.048 25.3523C171.497 25.3523 171.903 25.2898 172.267 25.1648C172.631 25.0341 172.946 24.8438 173.213 24.5938C173.48 24.3438 173.682 24.0341 173.818 23.6648L176.699 23.9886C176.517 24.75 176.17 25.4148 175.659 25.983C175.153 26.5455 174.506 26.983 173.716 27.2955C172.926 27.6023 172.023 27.7557 171.006 27.7557ZM183.204 27.7642C182.374 27.7642 181.627 27.6165 180.962 27.321C180.303 27.0199 179.781 26.5767 179.394 25.9915C179.013 25.4062 178.823 24.6847 178.823 23.8267C178.823 23.0881 178.96 22.4773 179.232 21.9943C179.505 21.5114 179.877 21.125 180.349 20.8352C180.82 20.5455 181.352 20.3267 181.942 20.179C182.539 20.0256 183.156 19.9148 183.792 19.8466C184.559 19.767 185.181 19.696 185.658 19.6335C186.136 19.5653 186.482 19.4631 186.698 19.3267C186.92 19.1847 187.031 18.9659 187.031 18.6705V18.6193C187.031 17.9773 186.84 17.4801 186.46 17.1278C186.079 16.7756 185.531 16.5994 184.815 16.5994C184.059 16.5994 183.46 16.7642 183.016 17.0938C182.579 17.4233 182.283 17.8125 182.13 18.2614L179.249 17.8523C179.477 17.0568 179.852 16.392 180.374 15.858C180.897 15.3182 181.536 14.9148 182.292 14.6477C183.048 14.375 183.883 14.2386 184.798 14.2386C185.428 14.2386 186.056 14.3125 186.681 14.4602C187.306 14.608 187.877 14.8523 188.394 15.1932C188.911 15.5284 189.326 15.9858 189.638 16.5653C189.957 17.1449 190.116 17.8693 190.116 18.7386V27.5H187.15V25.7017H187.048C186.86 26.0653 186.596 26.4062 186.255 26.7244C185.92 27.0369 185.496 27.2898 184.985 27.483C184.479 27.6705 183.886 27.7642 183.204 27.7642ZM184.005 25.4972C184.624 25.4972 185.161 25.375 185.616 25.1307C186.07 24.8807 186.42 24.5511 186.664 24.142C186.914 23.733 187.039 23.2869 187.039 22.804V21.2614C186.942 21.3409 186.778 21.4148 186.545 21.483C186.317 21.5511 186.062 21.6108 185.778 21.6619C185.494 21.7131 185.212 21.7585 184.934 21.7983C184.656 21.8381 184.414 21.8722 184.21 21.9006C183.749 21.9631 183.337 22.0653 182.974 22.2074C182.61 22.3494 182.323 22.5483 182.113 22.804C181.903 23.054 181.798 23.3778 181.798 23.7756C181.798 24.3438 182.005 24.7727 182.42 25.0625C182.835 25.3523 183.363 25.4972 184.005 25.4972ZM193.218 27.5V14.4091H196.167V16.6335H196.32C196.593 15.8835 197.045 15.2983 197.675 14.8778C198.306 14.4517 199.059 14.2386 199.934 14.2386C200.82 14.2386 201.567 14.4545 202.175 14.8864C202.789 15.3125 203.221 15.8949 203.471 16.6335H203.607C203.897 15.9062 204.386 15.3267 205.073 14.8949C205.766 14.4574 206.587 14.2386 207.536 14.2386C208.741 14.2386 209.724 14.6193 210.485 15.3807C211.246 16.142 211.627 17.2528 211.627 18.7131V27.5H208.533V19.1903C208.533 18.3778 208.317 17.7841 207.886 17.4091C207.454 17.0284 206.925 16.8381 206.3 16.8381C205.556 16.8381 204.974 17.071 204.553 17.5369C204.138 17.9972 203.931 18.5966 203.931 19.3352V27.5H200.906V19.0625C200.906 18.3864 200.701 17.8466 200.292 17.4432C199.888 17.0398 199.36 16.8381 198.707 16.8381C198.263 16.8381 197.86 16.9517 197.496 17.179C197.133 17.4006 196.843 17.7159 196.627 18.125C196.411 18.5284 196.303 19 196.303 19.5398V27.5H193.218ZM214.757 27.5V14.4091H217.842V27.5H214.757ZM216.308 12.5511C215.82 12.5511 215.399 12.3892 215.047 12.0653C214.695 11.7358 214.518 11.3409 214.518 10.8807C214.518 10.4148 214.695 10.0199 215.047 9.69602C215.399 9.36648 215.82 9.2017 216.308 9.2017C216.803 9.2017 217.223 9.36648 217.57 9.69602C217.922 10.0199 218.098 10.4148 218.098 10.8807C218.098 11.3409 217.922 11.7358 217.57 12.0653C217.223 12.3892 216.803 12.5511 216.308 12.5511ZM224.1 19.8295V27.5H221.015V14.4091H223.964V16.6335H224.117C224.418 15.9006 224.898 15.3182 225.558 14.8864C226.222 14.4545 227.043 14.2386 228.021 14.2386C228.924 14.2386 229.711 14.4318 230.381 14.8182C231.058 15.2045 231.58 15.7642 231.95 16.4972C232.325 17.2301 232.509 18.1193 232.504 19.1648V27.5H229.418V19.642C229.418 18.767 229.191 18.0824 228.737 17.5881C228.288 17.0937 227.665 16.8466 226.87 16.8466C226.33 16.8466 225.85 16.9659 225.43 17.2045C225.015 17.4375 224.688 17.7756 224.45 18.2188C224.217 18.6619 224.1 19.1989 224.1 19.8295ZM241.333 32.6818C240.225 32.6818 239.273 32.5313 238.478 32.2301C237.683 31.9347 237.043 31.5369 236.56 31.0369C236.077 30.5369 235.742 29.983 235.555 29.375L238.333 28.7017C238.458 28.9574 238.64 29.2102 238.879 29.4602C239.117 29.7159 239.438 29.9261 239.842 30.0909C240.251 30.2614 240.765 30.3466 241.384 30.3466C242.259 30.3466 242.984 30.1335 243.558 29.7074C244.131 29.2869 244.418 28.5938 244.418 27.6278V25.1477H244.265C244.106 25.4659 243.873 25.7926 243.566 26.1278C243.265 26.4631 242.864 26.7443 242.364 26.9716C241.87 27.1989 241.248 27.3125 240.498 27.3125C239.492 27.3125 238.58 27.0767 237.762 26.6051C236.95 26.1278 236.302 25.4176 235.819 24.4744C235.342 23.5256 235.103 22.3381 235.103 20.9119C235.103 19.4744 235.342 18.2614 235.819 17.2727C236.302 16.2784 236.952 15.5256 237.771 15.0142C238.589 14.4972 239.501 14.2386 240.506 14.2386C241.273 14.2386 241.904 14.3693 242.398 14.6307C242.898 14.8864 243.296 15.196 243.592 15.5597C243.887 15.9176 244.112 16.2557 244.265 16.5739H244.435V14.4091H247.478V27.7131C247.478 28.8324 247.211 29.7585 246.677 30.4915C246.143 31.2244 245.413 31.7727 244.487 32.1364C243.56 32.5 242.509 32.6818 241.333 32.6818ZM241.359 24.892C242.012 24.892 242.569 24.733 243.029 24.4148C243.489 24.0966 243.839 23.6392 244.077 23.0426C244.316 22.446 244.435 21.7301 244.435 20.8949C244.435 20.071 244.316 19.3494 244.077 18.7301C243.844 18.1108 243.498 17.6307 243.038 17.2898C242.583 16.9432 242.023 16.7699 241.359 16.7699C240.671 16.7699 240.097 16.9489 239.637 17.3068C239.177 17.6648 238.83 18.1562 238.597 18.7812C238.364 19.4006 238.248 20.1051 238.248 20.8949C238.248 21.696 238.364 22.3977 238.597 23C238.836 23.5966 239.185 24.0625 239.646 24.3977C240.112 24.7273 240.683 24.892 241.359 24.892Z" fill="white"/>
<defs>
<linearGradient id="paint0_linear_222_2289" x1="20.0601" y1="26.2699" x2="23.2076" y2="15.3068" gradientUnits="userSpaceOnUse">
<stop stop-color="#1724C9"/>
<stop offset="1" stop-color="#1C64F2"/>
</linearGradient>
<linearGradient id="paint1_linear_222_2289" x1="27.3094" y1="12.9003" x2="19.0298" y2="4.6498" gradientUnits="userSpaceOnUse">
<stop stop-color="#1C64F2"/>
<stop offset="1" stop-color="#0092FF"/>
</linearGradient>
<linearGradient id="paint2_linear_222_2289" x1="16.1645" y1="7.52115" x2="3.67432" y2="8.3104" gradientUnits="userSpaceOnUse">
<stop stop-color="#0092FF"/>
<stop offset="1" stop-color="#45B2FF"/>
</linearGradient>
<linearGradient id="paint3_linear_222_2289" x1="15.3197" y1="31.1627" x2="26.5366" y2="28.1359" gradientUnits="userSpaceOnUse">
<stop stop-color="#1C64F2"/>
<stop offset="1" stop-color="#0092FF"/>
</linearGradient>
<linearGradient id="paint4_linear_222_2289" x1="7.26875" y1="18.1827" x2="15.2324" y2="26.4347" gradientUnits="userSpaceOnUse">
<stop stop-color="#1724C9"/>
<stop offset="1" stop-color="#1C64F2"/>
</linearGradient>
<linearGradient id="paint5_linear_222_2289" x1="25.4504" y1="24.1357" x2="31.0069" y2="12.9345" gradientUnits="userSpaceOnUse">
<stop stop-color="#0092FF"/>
<stop offset="1" stop-color="#45B2FF"/>
</linearGradient>
<linearGradient id="paint6_linear_222_2289" x1="5.36387" y1="11.631" x2="2.39054" y2="22.8066" gradientUnits="userSpaceOnUse">
<stop stop-color="#1C64F2"/>
<stop offset="1" stop-color="#0092FF"/>
</linearGradient>
<linearGradient id="paint7_linear_222_2289" x1="20.5431" y1="11.0994" x2="9.67768" y2="13.8047" gradientUnits="userSpaceOnUse">
<stop stop-color="#1724C9"/>
<stop offset="1" stop-color="#1C64F2"/>
</linearGradient>
<linearGradient id="paint8_linear_222_2289" x1="6.40673" y1="23.8567" x2="13.3325" y2="34.2747" gradientUnits="userSpaceOnUse">
<stop stop-color="#0092FF"/>
<stop offset="1" stop-color="#45B2FF"/>
</linearGradient>
</defs>
</svg>
